Coordinates
version=1
nRows=12
nColumns=46
inDegrees=yes

Units are S.I. units (second, meters, Newtons, ...)
Angles are in degrees.

endheader
time	pelvis_tilt	pelvis_list	pelvis_rotation	pelvis_tx	pelvis_ty	pelvis_tz	bb_angle	bb_tx	bb_ty	bb_tz	hip_flexion_r	hip_adduction_r	hip_rotation_r	knee_angle_r	knee_angle_r_beta	ankle_angle_r	subtalar_angle_r	mtp_angle_r	crank_angle_r	hip_flexion_l	hip_adduction_l	hip_rotation_l	knee_angle_l	knee_angle_l_beta	ankle_angle_l	subtalar_angle_l	mtp_angle_l	crank_angle_l	lumbar_extension	lumbar_bending	lumbar_rotation	arm_flex_r	arm_add_r	arm_rot_r	elbow_flex_r	pro_sup_r	wrist_flex_r	wrist_dev_r	arm_flex_l	arm_add_l	arm_rot_l	elbow_flex_l	pro_sup_l	wrist_flex_l	wrist_dev_l
      7.50500000	    -11.58009058	      7.09167269	     12.72711800	      0.07403568	      1.16766439	     -0.22827754	      0.00000000	      0.50000000	      0.00000000	      0.25000000	     50.12514092	    -14.14092789	      3.81011141	     77.91200087	      1.35982094	    -16.43474845	    -11.47598232	      0.00000000	      0.00000000	     68.35234315	     11.52390049	      2.30209149	     72.66041008	      1.26816339	     12.16690293	     -9.26697556	      0.00000000	      0.00000000	    -66.20647266	      3.96028480	    -10.49623155	     88.91587751	    -16.29146655	     31.39377469	     54.57358435	     39.63814579	      0.00000000	      0.00000000	     89.80729081	    -14.24720468	     37.14818000	     60.39102725	     29.68801127	      0.00000000	      0.00000000
      7.51000000	    -11.55892479	      6.48069964	     12.51931598	      0.07424786	      1.16616032	     -0.23001103	      0.00000000	      0.50000000	      0.00000000	      0.25000000	     51.73614856	    -13.77686860	      3.92229222	     80.32623655	      1.40195730	    -17.53124027	    -10.97365442	      0.00000000	      0.00000000	     66.33787570	     11.19133091	      2.97302490	     69.65445628	      1.21569960	     13.29965112	     -9.42883693	      0.00000000	      0.00000000	    -65.98835132	      4.42911533	     -9.95174306	     88.97864537	    -16.13338597	     31.45423336	     54.62338012	     39.66566496	      0.00000000	      0.00000000	     89.79862209	    -14.48144284	     37.18256500	     60.34624154	     29.63332035	      0.00000000	      0.00000000
      7.51500000	    -11.47620608	      5.70037372	     12.25200540	      0.07460105	      1.16468180	     -0.23164814	      0.00000000	      0.50000000	      0.00000000	      0.25000000	     53.22493005	    -13.20280478	      3.89856579	     82.59168298	      1.44149680	    -18.60406225	    -10.47848151	      0.00000000	      0.00000000	     64.37619632	     10.63488038	      3.71982632	     66.75271311	      1.16505463	     14.20937622	     -9.64414043	      0.00000000	      0.00000000	    -65.78498598	      4.97505439	     -9.25520771	     89.06250887	    -15.96000593	     31.57637641	     54.64368618	     39.68833426	      0.00000000	      0.00000000	     89.78844426	    -14.76212578	     37.18964332	     60.28543659	     29.60899316	      0.00000000	      0.00000000
      7.52000000	    -11.32102030	      4.97158666	     11.98147165	      0.07504859	      1.16328299	     -0.23323916	      0.00000000	      0.50000000	      0.00000000	      0.25000000	     54.66167295	    -12.67615372	      3.90387034	     84.78711350	      1.47981429	    -19.79090861	     -9.91637378	      0.00000000	      0.00000000	     62.53062651	     10.02287566	      4.36159512	     64.15519995	      1.11971947	     14.82513582	     -9.66470273	      0.00000000	      0.00000000	    -65.63336053	      5.49460569	     -8.56985105	     89.11969587	    -15.79052794	     31.76459803	     54.65483305	     39.71476076	      0.00000000	      0.00000000	     89.77876017	    -15.05773802	     37.31016728	     60.14980008	     29.58889215	      0.00000000	      0.00000000
      7.52500000	    -11.09238896	      4.43285759	     11.62821205	      0.07567936	      1.16214155	     -0.23483152	      0.00000000	      0.50000000	      0.00000000	      0.25000000	     56.04336513	    -12.25055586	      4.07891127	     86.88397676	      1.51641146	    -21.25296268	     -9.45756870	      0.00000000	      0.00000000	     60.65786509	      9.44502077	      4.76194427	     61.73880422	      1.07754541	     15.19018499	     -9.53509346	      0.00000000	      0.00000000	    -65.43641669	      5.80559349	     -8.12494376	     89.18704696	    -15.86757511	     33.13006029	     54.27599524	     39.74748285	      0.00000000	      0.00000000	     89.77825955	    -15.65986862	     38.63188766	     59.63720993	     29.33403318	      0.00000000	      0.00000000
      7.53000000	    -10.83044562	      3.78806635	     11.24885720	      0.07633899	      1.16121594	     -0.23628853	      0.00000000	      0.50000000	      0.00000000	      0.25000000	     57.38636798	    -11.71688727	      4.13784570	     88.81102374	      1.55004478	    -22.79592939	     -8.92024026	      0.00000000	      0.00000000	     58.81875671	      8.75707350	      5.29843134	     59.41830529	      1.03704506	     15.37743687	     -9.28957739	      0.00000000	      0.00000000	    -65.38105306	      6.22276349	     -7.42831241	     89.23054059	    -15.71081727	     33.38784875	     54.23553412	     39.75473192	      0.00000000	      0.00000000	     89.76708865	    -15.99680226	     38.82132423	     59.41146886	     29.27589935	      0.00000000	      0.00000000
      7.53500000	    -10.47696929	      3.20460247	     10.84385083	      0.07722000	      1.16082232	     -0.23793095	      0.00000000	      0.50000000	      0.00000000	      0.25000000	     58.55856657	    -11.20776408	      4.21054467	     90.58601180	      1.58102416	    -24.40191756	     -8.62482441	      0.00000000	      0.00000000	     56.88333751	      8.02431108	      5.72359884	     57.15020783	      0.99745929	     15.29882712	     -8.65208010	      0.00000000	      0.00000000	    -65.38109400	      6.61394885	     -6.82476235	     89.28669034	    -15.56860935	     34.04662469	     53.95772709	     39.72666955	      0.00000000	      0.00000000	     89.76138207	    -16.44254962	     39.54119605	     58.89419239	     29.15790523	      0.00000000	      0.00000000
      7.54000000	    -10.11512763	      2.63843654	     10.35257117	      0.07814287	      1.16061011	     -0.23947583	      0.00000000	      0.50000000	      0.00000000	      0.25000000	     59.73866195	    -10.64250683	      4.34448296	     92.21199439	      1.60940291	    -26.07879393	     -8.16029017	      0.00000000	      0.00000000	     54.96210834	      7.16710847	      5.95873283	     54.90283765	      0.95823529	     14.98333305	     -7.99128515	      0.00000000	      0.00000000	    -65.44889697	      6.95160861	     -6.13604205	     89.33449352	    -15.35289040	     34.42913770	     53.78717808	     39.70250478	      0.00000000	      0.00000000	     89.74956982	    -16.83925957	     39.95212952	     58.50564305	     29.09022204	      0.00000000	      0.00000000
      7.54500000	     -9.72542207	      2.10330038	      9.72311938	      0.07923939	      1.16075746	     -0.24080742	      0.00000000	      0.50000000	      0.00000000	      0.25000000	     60.88376178	     -9.94370267	      4.56203323	     93.68664626	      1.63514044	    -28.12597420	     -7.46017464	      0.00000000	      0.00000000	     52.96582792	      6.19692443	      6.03327154	     52.62208054	      0.91842856	     14.67584187	     -7.43387655	      0.00000000	      0.00000000	    -65.52839501	      7.17150892	     -5.44395918	     89.36437796	    -15.12805317	     34.89935110	     53.58850525	     39.67699733	      0.00000000	      0.00000000	     89.73835389	    -17.28361790	     40.49382787	     58.01077842	     29.02019868	      0.00000000	      0.00000000
      7.55000000	     -9.31464033	      1.84713183	      9.09650679	      0.08050545	      1.16129691	     -0.24255372	      0.00000000	      0.50000000	      0.00000000	      0.25000000	     61.96837082	     -9.47359407	      4.97540305	     95.10584243	      1.65991009	    -29.72068609	     -7.19325049	      0.00000000	      0.00000000	     50.61678765	      5.69459589	      6.14522173	     49.96159029	      0.87199425	     13.89669601	     -7.88630436	      0.00000000	      0.00000000	    -65.55719368	      7.29000556	     -5.02196753	     89.43145591	    -14.63815609	     35.68456929	     52.68498979	     39.42628872	      0.00000000	      0.00000000	     89.73607468	    -17.76956909	     41.79484490	     57.05583791	     28.87405547	      0.00000000	      0.00000000
      7.55500000	     -8.81723953	      1.30129857	      8.38689881	      0.08163614	      1.16185646	     -0.24356405	      0.00000000	      0.50000000	      0.00000000	      0.25000000	     62.95618704	     -8.63389346	      5.16032450	     96.37887757	      1.68212874	    -31.42321669	     -6.72396282	      0.00000000	      0.00000000	     48.82981378	      4.31160550	      5.61969651	     48.17876502	      0.84087808	     13.32742931	     -6.11762451	      0.00000000	      0.00000000	    -65.77909123	      7.46471141	     -4.27314893	     89.45830614	    -14.19691193	     35.99388929	     52.37553406	     39.32808761	      0.00000000	      0.00000000	     89.72377777	    -18.15527185	     42.29429710	     56.49354806	     28.78451538	      0.00000000	      0.00000000
      7.56000000	     -8.38862134	      0.84314607	      7.71358091	      0.08275099	      1.16250720	     -0.24489624	      0.00000000	      0.50000000	      0.00000000	      0.25000000	     64.00343548	     -7.94551998	      5.34647643	     97.58320634	      1.70314825	    -33.04307659	     -6.51299318	      0.00000000	      0.00000000	     46.71895829	      3.45350744	      5.59901904	     45.92575579	      0.80155565	     12.73708585	     -5.84228515	      0.00000000	      0.00000000	    -65.80674641	      7.65457213	     -3.66494863	     89.49516512	    -13.49710003	     36.47328682	     51.27952772	     38.92930069	      0.00000000	      0.00000000	     89.71878362	    -18.53331858	     43.46880214	     55.40241289	     28.63939086	      0.00000000	      0.00000000
